<svg width="480" height="270" viewBox="0 0 480 270" fill="none" xmlns="http://www.w3.org/2000/svg">
<rect width="480" height="270" fill="white"/>
<path d="M16 50L16 30.1136L4 15L4 34.8864L16 50Z" fill="#FB5959"/>
<path d="M76 16H54.9773L39 4H60.0227L76 16Z" fill="#FB5959"/>
<path d="M113 266H91.9773L76 254H97.0227L113 266Z" fill="#FB5959"/>
<path d="M149 16H127.977L112 4H133.023L149 16Z" fill="#FB5959"/>
<path d="M186 266H164.977L149 254H170.023L186 266Z" fill="#FB5959"/>
<path d="M221 16H200.545L185 4H205.455L221 16Z" fill="#FB5959"/>
<path d="M258 266H237.545L222 254H242.455L258 266Z" fill="#FB5959"/>
<path d="M294 16H273.545L258 4H278.455L294 16Z" fill="#FB5959"/>
<path d="M331 266H310.545L295 254H315.455L331 266Z" fill="#FB5959"/>
<path d="M367 16H346.545L331 4H351.455L367 16Z" fill="#FB5959"/>
<path d="M404 266H383.545L368 254H388.455L404 266Z" fill="#FB5959"/>
<path d="M440 16H419.545L404 4H424.455L440 16Z" fill="#FB5959"/>
<path d="M477 266H456.545L441 254H461.455L477 266Z" fill="#FB5959"/>
<path d="M40 266H19.5455L4 254H24.4545L40 266Z" fill="#FB5959"/>
<path d="M16 128L16 108.114L4 93L4 112.886L16 128Z" fill="#FB5959"/>
<path d="M16 206L16 186.114L4 171L4 190.886L16 206Z" fill="#FB5959"/>
<path d="M39 16H18.5455L3 4H23.4545L39 16Z" fill="#73ADF9"/>
<path d="M76 266H55.5455L40 254H60.4545L76 266Z" fill="#73ADF9"/>
<path d="M112 16H91.5455L76 4H96.4545L112 16Z" fill="#73ADF9"/>
<path d="M149 266H128.545L113 254H133.455L149 266Z" fill="#73ADF9"/>
<path d="M185 16H164.545L149 4H169.455L185 16Z" fill="#73ADF9"/>
<path d="M222 266H201.545L186 254H206.455L222 266Z" fill="#73ADF9"/>
<path d="M258 16H236.977L221 4H242.023L258 16Z" fill="#73ADF9"/>
<path d="M295 266H273.977L258 254H279.023L295 266Z" fill="#73ADF9"/>
<path d="M331 16H309.977L294 4H315.023L331 16Z" fill="#73ADF9"/>
<path d="M368 266H346.977L331 254H352.023L368 266Z" fill="#73ADF9"/>
<path d="M404 16H382.977L367 4H388.023L404 16Z" fill="#73ADF9"/>
<path d="M477 16H455.977L440 4H461.023L477 16Z" fill="#73ADF9"/>
<path d="M441 266H419.977L404 254H425.023L441 266Z" fill="#73ADF9"/>
<path d="M16 89L16 69.1136L4 54L4 73.8864L16 89Z" fill="#73ADF9"/>
<path d="M16 167L16 147.114L4 132L4 151.886L16 167Z" fill="#73ADF9"/>
<path d="M16 245L16 225.114L4 210L4 229.886L16 245Z" fill="#73ADF9"/>
<path d="M476 58V38.1136L464 23V42.8864L476 58Z" fill="#FB5959"/>
<path d="M476 136V116.114L464 101V120.886L476 136Z" fill="#FB5959"/>
<path d="M476 214V194.114L464 179V198.886L476 214Z" fill="#FB5959"/>
<path d="M476 97V77.1136L464 62V81.8864L476 97Z" fill="#73ADF9"/>
<path d="M476 175V155.114L464 140V159.886L476 175Z" fill="#73ADF9"/>
<path d="M476 253V233.114L464 218V237.886L476 253Z" fill="#73ADF9"/>
</svg>
